<svg width="104" height="133" viewBox="0 0 104 133" fill="none" xmlns="http://www.w3.org/2000/svg">
<rect x="97.5543" y="21.2097" width="123.293" height="49.5008" transform="rotate(115.371 97.5543 21.2097)" fill="#D6FF97"/>
<circle cx="58.9821" cy="67.3193" r="45" fill="#2778F1"/>
<path d="M72.8992 59.3818C74.7977 59.3818 76.3329 57.8466 76.3329 55.9481C76.3329 54.0497 74.7977 52.5145 72.8992 52.5145H67.8483C67.9304 50.8504 67.3444 49.2448 66.3014 48.0261C66.4537 47.9557 66.6061 47.8854 66.7584 47.7917C68.0007 47.0768 68.903 45.9049 69.2663 44.5221L69.4655 43.7838C69.8406 42.3892 69.6413 40.936 68.9265 39.6938C68.2116 38.4516 67.0397 37.5492 65.6569 37.1859C62.7857 36.4125 59.8208 38.1235 59.059 40.9946L58.8598 41.7329C58.4848 43.1275 58.684 44.5807 59.3989 45.8229C59.4458 45.9166 59.5043 45.9987 59.5629 46.0807C59.0825 46.233 58.6137 46.444 58.1684 46.7018C57.5707 47.0534 57.0551 47.4987 56.6097 48.0026L52.6253 50.616C51.4534 51.3777 51.0315 52.866 51.6057 54.1317L53.469 58.2568L52.4495 62.6514C52.426 62.7335 52.4143 62.8272 52.4143 62.9093V73.222C52.4143 73.4916 52.5081 73.7494 52.6721 73.9486V78.4487H45.5821C45.3829 78.2964 45.1368 78.2026 44.8672 78.2026H41.8437C39.7812 78.2026 38.1053 79.8785 38.1053 81.941V89.2303C38.1053 89.8748 38.6327 90.4022 39.2773 90.4022H40.2734C43.0391 90.4022 45.3594 88.4451 45.9102 85.8435H56.598C59.0707 85.8435 61.1567 84.2262 61.895 81.9996L62.1529 82.3629V89.4178C61.9536 89.6287 61.8247 89.91 61.8247 90.2264V93.2499C61.8247 95.3125 63.5005 96.9883 65.5631 96.9883H72.8289C73.4735 96.9883 74.0008 96.4609 74.0008 95.8164V94.8203C74.0008 92.2421 72.3016 90.0623 69.9695 89.324V79.8199C69.9695 78.6245 69.782 77.4409 69.4069 76.3041L67.9538 71.8743L65.8444 62.9093L66.5475 59.3818H72.8992V59.3818ZM61.1333 42.3423L61.3325 41.604C61.6958 40.2446 62.9263 39.3422 64.274 39.3422C64.5318 39.3422 64.8014 39.3774 65.0592 39.4477C65.8444 39.6587 66.5006 40.1626 66.9108 40.8657C67.321 41.5689 67.4264 42.3892 67.2155 43.1744L67.0163 43.9127C66.8053 44.6978 66.3014 45.3541 65.5983 45.7643C64.9303 46.151 64.1451 46.2682 63.3951 46.0924C63.3013 46.069 63.2076 46.0338 63.1255 46.0104C63.1138 46.0104 63.1021 45.9987 63.0904 45.9987C62.399 45.7643 61.813 45.2838 61.4497 44.6393C61.0278 43.9478 60.9224 43.1275 61.1333 42.3423ZM62.4107 48.2604C62.4927 48.2839 62.5865 48.319 62.6685 48.3425C62.6919 48.3425 62.7036 48.3542 62.7271 48.3542C64.6607 48.987 65.8444 50.991 65.4342 53.0067L65.3404 53.4637C65.2701 53.8036 65.3639 54.1668 65.5865 54.4364C65.8092 54.7059 66.1373 54.8583 66.4889 54.8583H72.8875C73.4852 54.8583 73.9774 55.3505 73.9774 55.9481C73.9774 56.5458 73.4852 57.038 72.8875 57.038H65.61C65.5983 57.038 65.5748 57.038 65.5631 57.038H64.2037C62.7271 57.038 61.3911 56.0419 60.9809 54.6239C60.8052 54.0028 60.1489 53.6395 59.5278 53.827C58.9067 54.0028 58.5551 54.659 58.7309 55.2802C59.434 57.6826 61.6607 59.3701 64.1568 59.3818L63.6881 61.7608H55.0511L57.5004 51.284C57.641 50.6863 57.9106 50.1355 58.2856 49.6667C58.2973 49.655 58.309 49.6433 58.3207 49.6316C58.6137 49.28 58.9653 48.9753 59.3754 48.7292C60.3012 48.1667 61.3677 48.0026 62.4107 48.2604ZM67.1803 77.0424C67.4733 77.9448 67.6257 78.8823 67.6257 79.8316V89.0779H64.4849V81.9996C64.4849 81.7535 64.4146 81.5191 64.274 81.3199L62.1646 78.3433V74.2299L66.0436 73.5267L67.1803 77.0424ZM54.7581 72.0736V64.1046H61.2856L59.9848 72.0736H54.7581ZM63.7349 64.1046L65.4108 71.2649L62.4107 71.804L63.6646 64.1046H63.7349V64.1046ZM53.7386 53.1824C53.6448 52.9715 53.7151 52.7254 53.9144 52.5965L54.9574 51.9051L54.348 54.5184L53.7386 53.1824ZM40.4374 88.0701V81.9645C40.4374 81.191 41.0585 80.5699 41.832 80.5699H43.6836V84.6598C43.6836 86.488 42.2422 87.9763 40.4374 88.0701ZM56.5863 83.5114H46.0157V80.816H53.8323C54.4769 80.816 55.0042 80.2886 55.0042 79.6441V74.4174H59.809V80.2886C59.809 82.0699 58.3676 83.5114 56.5863 83.5114ZM71.657 94.6562H65.5514C64.7779 94.6562 64.1568 94.0351 64.1568 93.2616V91.41H68.2468C70.0749 91.41 71.5633 92.8515 71.657 94.6562Z" fill="white"/>
<path d="M57.477 94.6562H43.1328C42.4883 94.6562 41.9609 95.1836 41.9609 95.8282C41.9609 96.4727 42.4883 97.0001 43.1328 97.0001H57.477C58.1215 97.0001 58.6489 96.4727 58.6489 95.8282C58.6489 95.1836 58.1215 94.6562 57.477 94.6562Z" fill="white"/>
<path d="M39.0898 94.6562C38.7851 94.6562 38.4804 94.7852 38.2577 94.9961C38.035 95.2188 37.9178 95.5117 37.9178 95.8282C37.9178 96.1329 38.0468 96.4375 38.2577 96.6602C38.4804 96.8829 38.7733 97.0001 39.0898 97.0001C39.3944 97.0001 39.6991 96.8712 39.9218 96.6602C40.1445 96.4375 40.2617 96.1446 40.2617 95.8282C40.2617 95.5235 40.1327 95.2188 39.9218 94.9961C39.6991 94.7852 39.3944 94.6562 39.0898 94.6562Z" fill="white"/>
<path d="M34.4724 64.1046C34.7771 64.1046 35.0818 63.9756 35.3045 63.7647C35.5272 63.542 35.6443 63.2491 35.6443 62.9326C35.6443 62.628 35.5154 62.3233 35.3045 62.1006C35.0818 61.8779 34.7889 61.7607 34.4724 61.7607C34.1677 61.7607 33.8631 61.8897 33.6404 62.1006C33.4177 62.3233 33.3005 62.6162 33.3005 62.9326C33.3005 63.2373 33.4294 63.542 33.6404 63.7647C33.8631 63.9874 34.156 64.1046 34.4724 64.1046Z" fill="white"/>
<path d="M46.0274 69.4954C46.0274 68.8508 45.5001 68.3235 44.8555 68.3235H30.1715C29.527 68.3235 28.9996 68.8508 28.9996 69.4954C28.9996 70.1399 29.527 70.6673 30.1715 70.6673H44.8555C45.5001 70.6673 46.0274 70.1517 46.0274 69.4954Z" fill="white"/>
<path d="M39.1601 64.1046H47.047C47.6915 64.1046 48.2189 63.5772 48.2189 62.9326C48.2189 62.2881 47.6915 61.7607 47.047 61.7607H39.1601C38.5155 61.7607 37.9882 62.2881 37.9882 62.9326C37.9882 63.5772 38.5038 64.1046 39.1601 64.1046Z" fill="white"/>
</svg>
