<svg width="93" height="136" viewBox="0 0 93 136" fill="none" xmlns="http://www.w3.org/2000/svg">
<rect x="89.6685" y="15.5483" width="132.751" height="36.2882" transform="rotate(115.371 89.6685 15.5483)" fill="#D6FF97"/>
<circle cx="47.0439" cy="70.2036" r="45" fill="#2778F1"/>
<g clip-path="url(#clip0_164_415)">
<path d="M54.2031 46.2031C54.2031 41.6875 50.5156 38 46 38C41.4844 38 37.7969 41.6875 37.7969 46.2031C37.7969 50.7187 41.4844 54.4062 46 54.4062C50.5156 54.4062 54.2031 50.7187 54.2031 46.2031ZM46 52.0625C42.7656 52.0625 40.1406 49.4375 40.1406 46.2031C40.1406 42.9687 42.7656 40.3438 46 40.3438C49.2344 40.3438 51.8594 42.9687 51.8594 46.2031C51.8594 49.4375 49.2344 52.0625 46 52.0625Z" fill="white"/>
<path d="M29.8281 70.8125C31.9843 70.8125 34.2343 70.4375 36.1249 69.7812C36.6562 72.5937 37.2031 75.4688 37.5156 78.1875C32.2656 78.3438 28.6874 78.7344 26.0312 79.3906C22.1718 80.3594 20.2187 82.0781 20.2187 84.5312C20.2187 87.3906 23.0312 90.6875 27.7656 93.375C28.3281 93.7031 29.0468 93.5 29.3593 92.9375C29.6718 92.375 29.4843 91.6562 28.9218 91.3438C24.5312 88.8438 22.5624 86.125 22.5624 84.5312C22.5624 81.2656 31.8593 80.6563 38.8437 80.5C41.1093 81.5625 43.5468 82.0938 45.9999 82.0938C48.453 82.0938 50.8906 81.5625 53.1562 80.5C60.1405 80.6719 69.4374 81.2656 69.4374 84.5312C69.4374 88.4687 61.4062 92.4844 57.5624 93.7813C57.2187 92.1875 56.3593 90.7656 55.0624 89.7344C54.6874 89.4375 54.2968 89.1875 53.8749 88.9688C55.828 88.1719 57.7031 87.4688 60.0624 87.4688C60.7031 87.4688 61.2343 86.9375 61.2343 86.2969C61.2343 85.6563 60.7031 85.125 60.0624 85.125C57.0781 85.125 54.7968 86.0625 52.5937 86.9688C51.2655 87.5156 49.9999 88.0313 48.6093 88.3438H48.5937C47.9218 88.5 46.9374 88.6406 45.9999 88.6406C43.4843 88.6406 41.4999 87.8281 39.4062 86.9688C37.1874 86.0625 34.9062 85.125 31.9374 85.125C31.2968 85.125 30.7656 85.6563 30.7656 86.2969C30.7656 86.9375 31.2968 87.4688 31.9374 87.4688C34.4531 87.4688 36.4374 88.2812 38.5312 89.1406C40.7343 90.0312 43.0156 90.9688 45.9999 90.9688C47.1562 90.9688 48.328 90.8125 49.1874 90.5938C50.7655 90.2344 52.3749 90.5781 53.6093 91.5469C54.5312 92.2813 55.1249 93.2969 55.3124 94.4375C52.2812 95.2344 49.1562 95.6563 45.9999 95.6563C43.4687 95.6563 40.9218 95.3906 38.4374 94.8594C37.7968 94.7188 37.1874 95.125 37.0468 95.7656C36.9062 96.4063 37.3124 97.0156 37.9531 97.1563C40.6093 97.7188 43.3124 98 45.9999 98C60.078 98 71.7812 90.2344 71.7812 84.5156C71.7812 78.7188 60.6562 78.3594 54.4843 78.1719C54.7968 75.4531 55.3437 72.5781 55.8749 69.7656C57.7655 70.4219 59.9999 70.7969 62.1718 70.7969C68.4218 70.7969 75.6718 67.2969 75.9999 61.25C76.0155 60.8438 75.828 60.4531 75.4999 60.2187C75.1718 59.9844 74.7343 59.9375 74.3593 60.1094C72.4687 60.9375 69.8749 61.4219 67.4374 61.4219C60.7343 61.4219 57.2499 57.9844 56.8593 57.8281C53.7499 55.6094 49.9687 54.3906 46.0781 54.3906H45.9062C44.6874 54.3906 43.4531 54.5156 42.2656 54.75C38.9999 55.3594 35.3124 57.4531 34.7187 58.125C31.7187 60.4063 28.2656 61.4375 24.5468 61.4375C22.1093 61.4375 19.5312 60.9531 17.6249 60.125C17.2499 59.9688 16.8281 60 16.4843 60.2344C16.1562 60.4688 15.9687 60.8594 15.9843 61.2656C16.3281 67.3281 23.6093 70.8125 29.8281 70.8125ZM39.9062 78.3906C39.2499 72.25 37.4531 65.5469 36.8281 59.5C38.1874 58.5781 39.7187 57.8594 41.3124 57.3906V59.0937C41.3124 61.6719 43.4218 63.7812 45.9999 63.7812C48.578 63.7812 50.6874 61.6719 50.6874 59.0937V57.4062C52.2812 57.875 53.7968 58.5937 55.1718 59.5156C54.5624 65.5 52.7499 72.25 52.0937 78.4063C48.2343 80.1719 43.7656 80.1719 39.9062 78.3906ZM67.4374 63.7812C69.3593 63.7812 71.3749 63.5 73.1562 63.0156C71.703 66.1094 67.1874 68.4687 62.1562 68.4687C60.1249 68.4687 57.9999 68.0937 56.2968 67.4531C56.7031 65.2969 57.0781 63.1719 57.3437 61.0781C60.0937 62.7812 63.7499 63.7812 67.4374 63.7812ZM46.0781 56.75C46.8281 56.75 47.5937 56.7969 48.3437 56.9062V59.0937C48.3437 60.3906 47.2968 61.4375 45.9999 61.4375C44.7031 61.4375 43.6562 60.3906 43.6562 59.0937V56.9062C44.4062 56.7969 45.1562 56.75 45.9218 56.75H46.0781ZM24.5468 63.7812C28.2499 63.7812 31.9062 62.7812 34.6406 61.0781C34.9062 63.1875 35.2812 65.3594 35.6718 67.4531C33.9687 68.0937 31.8437 68.4687 29.8124 68.4687C24.7812 68.4687 20.2656 66.1094 18.8124 63.0156C20.6093 63.5 22.6249 63.7812 24.5468 63.7812Z" fill="white"/>
<path d="M34.2812 94.6094C34.2812 95.25 33.75 95.7812 33.1094 95.7812C32.4687 95.7812 31.9375 95.25 31.9375 94.6094C31.9375 93.9688 32.4687 93.4375 33.1094 93.4375C33.75 93.4375 34.2812 93.9531 34.2812 94.6094Z" fill="white"/>
</g>
<defs>
<clipPath id="clip0_164_415">
<rect width="60" height="60" fill="white" transform="translate(16 38)"/>
</clipPath>
</defs>
</svg>
