<svg width="136" height="90" viewBox="0 0 136 90" fill="none" xmlns="http://www.w3.org/2000/svg">
<rect width="131.073" height="36.2697" transform="matrix(0.979843 0.199767 -0.194745 0.980854 7.06348 21.6646)" fill="#D6FF97"/>
<ellipse cx="70.9167" cy="45" rx="44.4079" ry="45" fill="#2778F1"/>
<g clip-path="url(#clip0_164_425)">
<path d="M95.2339 27.3173C90.3139 21.0345 83.2809 17.0961 75.4151 16.1896C67.9349 15.33 60.5781 17.3149 54.5477 21.816L51.9412 18.4871C51.6944 18.1588 51.278 18.0026 50.877 18.0494C50.476 18.112 50.1212 18.3776 49.967 18.7527L42.8724 35.7568C42.7027 36.1476 42.7644 36.6008 43.0266 36.9446C43.2888 37.2885 43.7206 37.4447 44.1371 37.3666L62.0741 34.1627C62.4751 34.0846 62.8144 33.8032 62.9533 33.4281C63.0921 33.0374 63.0304 32.5998 62.7836 32.2872L60.2079 29.0208C66.0379 24.848 73.5952 24.0196 80.2117 26.911C80.7978 27.161 81.4764 26.8953 81.7386 26.3014C81.9854 25.7075 81.7232 25.0199 81.1371 24.7542C73.3793 21.3627 64.4493 22.5662 57.8482 27.8956C57.6014 28.0831 57.4472 28.3644 57.4164 28.677C57.3855 28.9896 57.4626 29.3022 57.6631 29.5366L59.7607 32.2091L45.8336 34.6941L51.3551 21.5034L53.4526 24.1759C53.8536 24.676 54.5785 24.7698 55.072 24.3635C66.8553 14.8612 84.0521 16.846 93.4293 28.7708C97.8095 34.3502 99.8762 41.2738 99.2593 48.3692L94.694 49.1819C95.5577 42.9148 93.8612 36.5852 89.9437 31.584C89.5427 31.0838 88.8178 30.9901 88.3243 31.3964C87.8308 31.8028 87.7382 32.5373 88.1392 33.0374C91.9796 37.9292 93.4448 44.2589 92.1492 50.3697C92.0721 50.7448 92.1801 51.1512 92.4423 51.4325C92.6582 51.6669 92.9667 51.7919 93.2751 51.7919C93.3368 51.7919 100.524 50.5104 100.524 50.5104C101.033 50.4166 101.419 50.0103 101.465 49.4945C102.406 41.4926 100.185 33.6157 95.2339 27.3173Z" fill="white"/>
<path d="M100 54.6208L82.0631 57.8091C81.6621 57.8873 81.3228 58.1686 81.184 58.5437C81.0452 58.9344 81.1069 59.372 81.3536 59.6846L83.9293 62.9666C80.6905 65.2953 76.9735 66.53 73.2257 66.7488V51.3388C74.4132 51.6358 75.6008 51.792 76.7421 51.792C78.9014 51.792 80.9372 51.2607 82.7263 50.2135C85.8726 48.3693 88.0319 45.0404 88.8184 40.8519C88.9264 40.2893 88.6025 39.7266 88.0627 39.5391C84.0835 38.1169 80.1661 38.3513 77.0198 40.1955C74.8605 41.4614 73.164 43.415 72.0689 45.8687C70.9739 43.415 69.2773 41.4614 67.1181 40.1955C63.9718 38.3513 60.0389 38.1169 56.0752 39.5391C55.5353 39.7266 55.2115 40.2893 55.3194 40.8519C56.0906 45.0404 58.2498 48.3693 61.4116 50.2135C63.2006 51.2607 65.2365 51.792 67.3957 51.792C68.537 51.792 69.7246 51.6358 70.9122 51.3388V66.7488C65.2673 66.4206 59.7921 63.7637 55.998 58.9344C52.1577 54.0426 50.6925 47.7129 51.988 41.6021C52.0651 41.227 51.9572 40.8207 51.695 40.5393C51.4328 40.258 51.0472 40.133 50.6616 40.1955L43.6133 41.4458C43.1043 41.5396 42.7187 41.9459 42.6725 42.4617C41.7471 50.4636 43.9526 58.3561 48.9034 64.6545C53.8234 70.9216 60.8717 74.8757 68.7221 75.7822C69.8634 75.9072 71.0047 75.9854 72.1306 75.9854C78.4078 75.9854 84.4845 73.9693 89.5896 70.1715L92.1961 73.4848C92.4429 73.813 92.8593 73.9693 93.2603 73.9224C93.6613 73.8599 94.016 73.5942 94.1703 73.2191L101.28 56.2306C101.45 55.8399 101.388 55.3867 101.126 55.0428C100.848 54.7146 100.417 54.5427 100 54.6208ZM78.1765 42.2272C80.49 40.8832 83.3432 40.6018 86.3199 41.4458C85.5333 44.4778 83.883 46.8534 81.5696 48.1974C79.2561 49.5415 76.4028 49.8228 73.4262 48.9945C74.2127 45.9469 75.863 43.5713 78.1765 42.2272ZM62.5683 48.1974C60.2548 46.8534 58.6045 44.4778 57.818 41.4458C60.7946 40.6175 63.6633 40.8832 65.9614 42.2272C68.2748 43.5713 69.9251 45.9469 70.7117 48.9789C67.735 49.8072 64.8663 49.5415 62.5683 48.1974ZM92.7822 70.4997L90.6846 67.8272C90.2836 67.327 89.5588 67.2333 89.0652 67.6396C84.0527 71.6875 78.0531 73.6411 72.0998 73.6411C64.0643 73.6411 56.0906 70.0621 50.7079 63.2167C46.3277 57.6372 44.261 50.698 44.878 43.6182L49.4432 42.8055C48.5795 49.0726 50.2761 55.4023 54.1935 60.4035C58.6971 66.1392 65.3599 69.1243 72.0998 69.1243C77.0814 69.1243 82.1094 67.4833 86.3045 64.1075C86.798 63.7012 86.8905 62.9666 86.4895 62.4665L84.392 59.794L98.3191 57.309L92.7822 70.4997Z" fill="white"/>
<path d="M85.2246 29.6933C85.5177 29.6933 85.8107 29.5839 86.0421 29.3494C86.4894 28.8961 86.4894 28.1458 86.0421 27.6925C85.5948 27.2392 84.8544 27.2392 84.407 27.6925C83.9597 28.1458 83.9597 28.8961 84.407 29.3494C84.6384 29.5682 84.9315 29.6933 85.2246 29.6933Z" fill="white"/>
</g>
<defs>
<clipPath id="clip0_164_425">
<rect width="59.2105" height="60" fill="white" transform="translate(42.4336 16)"/>
</clipPath>
</defs>
</svg>
