<svg width="82" height="86" viewBox="0 0 82 86" fill="none" xmlns="http://www.w3.org/2000/svg">
<circle cx="4.36726" cy="26.517" r="3.56585" transform="rotate(-15 4.36726 26.517)" fill="#2778F1" fill-opacity="0.25"/>
<circle cx="18.1446" cy="22.8254" r="3.56585" transform="rotate(-15 18.1446 22.8254)" fill="#2778F1" fill-opacity="0.25"/>
<circle cx="31.9221" cy="19.1337" r="3.56585" transform="rotate(-15 31.9221 19.1337)" fill="#2778F1" fill-opacity="0.25"/>
<circle cx="45.6994" cy="15.4421" r="3.56585" transform="rotate(-15 45.6994 15.4421)" fill="#2778F1" fill-opacity="0.25"/>
<circle cx="59.4768" cy="11.7504" r="3.56585" transform="rotate(-15 59.4768 11.7504)" fill="#2778F1" fill-opacity="0.25"/>
<circle cx="73.2542" cy="8.05879" r="3.56585" transform="rotate(-15 73.2542 8.05879)" fill="#2778F1" fill-opacity="0.25"/>
<circle cx="8.05885" cy="40.2944" r="3.56585" transform="rotate(-15 8.05885 40.2944)" fill="#2778F1" fill-opacity="0.25"/>
<circle cx="21.8362" cy="36.6027" r="3.56585" transform="rotate(-15 21.8362 36.6027)" fill="#2778F1" fill-opacity="0.25"/>
<circle cx="35.6137" cy="32.9111" r="3.56585" transform="rotate(-15 35.6137 32.9111)" fill="#2778F1" fill-opacity="0.25"/>
<circle cx="49.391" cy="29.2194" r="3.56585" transform="rotate(-15 49.391 29.2194)" fill="#2778F1" fill-opacity="0.25"/>
<circle cx="63.1684" cy="25.5278" r="3.56585" transform="rotate(-15 63.1684 25.5278)" fill="#2778F1" fill-opacity="0.25"/>
<circle cx="76.9458" cy="21.8361" r="3.56585" transform="rotate(-15 76.9458 21.8361)" fill="#2778F1" fill-opacity="0.25"/>
<circle cx="11.7505" cy="54.0717" r="3.56585" transform="rotate(-15 11.7505 54.0717)" fill="#2778F1" fill-opacity="0.25"/>
<circle cx="25.5278" cy="50.3801" r="3.56585" transform="rotate(-15 25.5278 50.3801)" fill="#2778F1" fill-opacity="0.25"/>
<circle cx="39.3053" cy="46.6884" r="3.56585" transform="rotate(-15 39.3053 46.6884)" fill="#2778F1" fill-opacity="0.25"/>
<circle cx="53.0827" cy="42.9968" r="3.56585" transform="rotate(-15 53.0827 42.9968)" fill="#2778F1" fill-opacity="0.25"/>
<circle cx="66.8601" cy="39.3051" r="3.56585" transform="rotate(-15 66.8601 39.3051)" fill="#2778F1" fill-opacity="0.25"/>
<circle cx="80.6374" cy="35.6135" r="3.56585" transform="rotate(-15 80.6374 35.6135)" fill="#2778F1" fill-opacity="0.25"/>
<circle cx="15.4422" cy="67.8493" r="3.56585" transform="rotate(-15 15.4422 67.8493)" fill="#2778F1" fill-opacity="0.25"/>
<circle cx="29.2195" cy="64.1577" r="3.56585" transform="rotate(-15 29.2195 64.1577)" fill="#2778F1" fill-opacity="0.25"/>
<circle cx="42.997" cy="60.466" r="3.56585" transform="rotate(-15 42.997 60.466)" fill="#2778F1" fill-opacity="0.25"/>
<circle cx="56.7743" cy="56.7744" r="3.56585" transform="rotate(-15 56.7743 56.7744)" fill="#2778F1" fill-opacity="0.25"/>
<circle cx="70.5517" cy="53.0827" r="3.56585" transform="rotate(-15 70.5517 53.0827)" fill="#2778F1" fill-opacity="0.25"/>
<circle cx="84.3291" cy="49.3911" r="3.56585" transform="rotate(-15 84.3291 49.3911)" fill="#2778F1" fill-opacity="0.25"/>
<circle cx="19.1338" cy="81.6267" r="3.56585" transform="rotate(-15 19.1338 81.6267)" fill="#2778F1" fill-opacity="0.25"/>
<circle cx="32.9111" cy="77.935" r="3.56585" transform="rotate(-15 32.9111 77.935)" fill="#2778F1" fill-opacity="0.25"/>
<circle cx="46.6886" cy="74.2434" r="3.56585" transform="rotate(-15 46.6886 74.2434)" fill="#2778F1" fill-opacity="0.25"/>
<circle cx="60.466" cy="70.5517" r="3.56585" transform="rotate(-15 60.466 70.5517)" fill="#2778F1" fill-opacity="0.25"/>
<circle cx="74.2434" cy="66.8601" r="3.56585" transform="rotate(-15 74.2434 66.8601)" fill="#2778F1" fill-opacity="0.25"/>
</svg>
