<svg width="138" height="90" viewBox="0 0 138 90" fill="none" xmlns="http://www.w3.org/2000/svg">
<rect y="39.8154" width="132.751" height="36.2882" transform="rotate(-13.016 0 39.8154)" fill="#D6FF97"/>
<circle cx="70.9663" cy="45" r="45" fill="#2778F1"/>
<path d="M85.5912 29.2932C84.7165 28.4184 83.7636 27.653 82.7638 26.9656V20.8578C82.7638 20.2174 82.2327 19.6863 81.5923 19.6863C80.9518 19.6863 80.4207 20.2174 80.4207 20.8578V25.5754C79.296 25.013 78.1244 24.56 76.906 24.2007V16.1716C76.906 15.5311 76.3749 15 75.7344 15C75.094 15 74.5629 15.5311 74.5629 16.1716V23.6852C73.5163 23.5134 72.4384 23.4353 71.3606 23.4353C71.2512 23.4353 71.1575 23.4353 71.0481 23.4353V20.8578C71.0481 20.2174 70.517 19.6863 69.8766 19.6863C69.2361 19.6863 68.705 20.2174 68.705 20.8578V23.6071C67.5022 23.7633 66.3306 24.0289 65.1903 24.3882V16.1716C65.1903 15.5311 64.6592 15 64.0187 15C63.3783 15 62.8472 15.5311 62.8472 16.1716V25.3098C60.7539 26.2783 58.817 27.6217 57.1299 29.2932C53.3028 33.0734 51.2096 38.0721 51.2096 43.3832C51.2096 44.6017 50.1317 46.8355 48.3197 49.3661C46.6326 51.7248 46.8669 53.365 47.3668 54.3491C47.8979 55.3801 49.1945 56.5829 52.3968 56.8172V61.9409C52.3968 65.4087 55.2398 68.2361 58.7388 68.2361C61.8006 68.2361 63.4876 68.3455 64.1906 68.9703C64.8935 69.5795 65.1122 71.1104 65.2996 73.9065C65.3465 74.5158 65.8464 75 66.4712 75H83.2637C83.5918 75 83.9042 74.8594 84.1229 74.6251C84.3416 74.3908 84.4509 74.0784 84.4353 73.7503C84.2791 71.4853 84.2322 69.8139 84.2322 68.3455C84.2322 67.705 83.7167 67.1739 83.0606 67.1583C82.4202 67.1583 81.8891 67.6738 81.8891 68.3142C81.8734 69.5639 81.9203 70.9386 82.014 72.6412H67.5491C67.346 70.095 67.0023 68.2986 65.7214 67.1895C64.3155 65.9711 62.1442 65.893 58.7232 65.893C56.5207 65.893 54.7243 64.1278 54.7243 61.9409V60.3632H58.239C58.8794 60.3632 59.4105 59.8321 59.4105 59.1916C59.4105 58.5512 58.8794 58.02 58.239 58.02H54.7399V55.6769C54.7399 55.0364 54.2088 54.5053 53.5683 54.5053C51.3814 54.5053 49.8505 54.0367 49.4444 53.2713C49.1632 52.7246 49.4444 51.8029 50.2098 50.7251C51.7251 48.6006 53.5527 45.6014 53.5527 43.3832C53.5527 36.7131 57.3173 30.9021 62.8628 27.9185V33.0578C62.8628 33.6983 63.3939 34.2294 64.0343 34.2294C64.6748 34.2294 65.2059 33.6983 65.2059 33.0578V26.8719C66.3306 26.4658 67.5022 26.1533 68.7206 25.9815V37.7441C68.7206 38.3845 69.2517 38.9156 69.8922 38.9156C70.5327 38.9156 71.0638 38.3845 71.0638 37.7441V25.7784C71.1731 25.7784 71.2668 25.7784 71.3762 25.7784C72.4696 25.7784 73.5475 25.8722 74.5785 26.0596V33.0422C74.5785 33.6826 75.1096 34.2137 75.75 34.2137C76.3905 34.2137 76.9216 33.6826 76.9216 33.0422V26.6376C78.1557 27.0437 79.3429 27.5749 80.4363 28.2153V43.93C80.4363 44.5704 80.9674 45.1015 81.6079 45.1015C82.2484 45.1015 82.7795 44.5704 82.7795 43.93V29.8711C86.6847 33.1047 89.184 37.9628 89.184 43.3832C89.184 46.6168 88.278 49.7722 86.5753 52.5215C85.4819 54.3023 84.6071 55.9425 83.9354 57.5514C83.6855 58.145 83.9667 58.8323 84.5602 59.0823C85.1538 59.3322 85.8412 59.051 86.0911 58.4574C86.7159 56.9578 87.5126 55.427 88.5592 53.7555C90.4962 50.6313 91.5272 47.0385 91.5272 43.3832C91.5116 38.0721 89.4027 33.0734 85.5912 29.2932Z" fill="white"/>
<path d="M57.3642 47.2416C58.0047 47.2416 58.5358 46.7105 58.5358 46.07C58.5358 45.4295 58.0047 44.8984 57.3642 44.8984C56.7237 44.8984 56.1926 45.4295 56.1926 46.07C56.1926 46.7105 56.7237 47.2416 57.3642 47.2416Z" fill="white"/>
<path d="M83.5136 61.894C82.8732 61.894 82.342 62.4252 82.342 63.0656C82.342 63.7061 82.8732 64.2372 83.5136 64.2372C84.1541 64.2372 84.6852 63.7061 84.6852 63.0656C84.6852 62.4095 84.1541 61.894 83.5136 61.894Z" fill="white"/>
<path d="M60.5977 43.1334C61.2382 43.1334 61.7693 42.6023 61.7693 41.9618C61.7693 41.3213 61.2382 40.7902 60.5977 40.7902C60.1447 40.7902 59.598 40.5559 59.0044 40.306C58.2546 39.9936 57.4111 39.6187 56.4894 39.6187C55.849 39.6187 55.3179 40.1498 55.3179 40.7902C55.3179 41.4307 55.849 41.9618 56.4894 41.9618C56.9424 41.9618 57.4892 42.1961 58.0828 42.446C58.8326 42.7741 59.6761 43.1334 60.5977 43.1334Z" fill="white"/>
<path d="M61.2695 56.411H61.3008C62.3005 56.411 63.2378 56.0205 63.9563 55.3019C64.6749 54.5833 65.0966 53.5836 65.0966 52.5839C65.0966 51.2092 64.2687 49.8971 63.7845 49.241C63.1597 48.4131 62.238 47.429 61.2851 47.429C60.3479 47.429 59.4106 48.4131 58.7858 49.241C58.2859 49.8971 57.4736 51.2092 57.4736 52.5839C57.4736 53.5836 57.8954 54.5833 58.614 55.3019C59.3325 56.0205 60.2698 56.411 61.2695 56.411ZM61.2851 49.9283C61.8631 50.4594 62.7535 51.7403 62.7535 52.5839C62.7535 52.9744 62.5817 53.3649 62.3005 53.6461C62.0193 53.9273 61.66 54.0835 61.2851 54.0835C60.9102 54.0835 60.551 53.9273 60.2698 53.6461C59.9886 53.3649 59.8168 52.9744 59.8168 52.5839C59.8168 51.7403 60.7072 50.475 61.2851 49.9283Z" fill="white"/>
</svg>
