<svg width="48" height="50" viewBox="0 0 48 50" fill="none" xmlns="http://www.w3.org/2000/svg">
<path d="M21.6928 12.5001L7.82861 20.9376C7.24383 21.2923 6.75782 21.8042 6.41968 22.4215C6.08155 23.0388 5.90326 23.7396 5.90283 24.4532V39.6876C5.90283 40.765 6.30707 41.7983 7.02661 42.5602C7.74615 43.3221 8.72205 43.7501 9.73964 43.7501H37.4827C38.5003 43.7501 39.4762 43.3221 40.1957 42.5602C40.9153 41.7983 41.3195 40.765 41.3195 39.6876V24.4532C41.3198 23.7404 41.1426 23.04 40.8058 22.4228C40.469 21.8056 39.9845 21.2933 39.4011 20.9376L25.5296 12.5001C24.9465 12.1427 24.2848 11.9546 23.6112 11.9546C22.9375 11.9546 22.2758 12.1427 21.6928 12.5001Z" fill="#D6FF97"/>
<path d="M41.3194 39.6875V24.4531C41.3197 23.7403 41.1425 23.04 40.8057 22.4227C40.4689 21.8055 39.9844 21.2932 39.401 20.9375L27.9865 13.9609L18.8815 34.9297L30.3771 41.7812C32.5473 43.071 34.9939 43.749 37.4826 43.75C37.9867 43.751 38.4861 43.6467 38.952 43.4429C39.418 43.2391 39.8413 42.9399 40.1978 42.5624C40.5543 42.185 40.8369 41.7367 41.0293 41.2434C41.2218 40.75 41.3204 40.2213 41.3194 39.6875Z" fill="#D6FF97"/>
<path d="M39.3937 20.9376L25.5296 12.5001C24.9465 12.1427 24.2848 11.9546 23.6112 11.9546C22.9375 11.9546 22.2758 12.1427 21.6928 12.5001L7.82861 20.9376C7.24383 21.2923 6.75782 21.8042 6.41968 22.4215C6.08155 23.0388 5.90326 23.7396 5.90283 24.4532V24.6641C5.90326 25.3768 6.08075 26.0768 6.41748 26.6939C6.75421 27.311 7.23833 27.8234 7.82124 28.1798L21.6928 36.6563C22.2758 37.0136 22.9375 37.2018 23.6112 37.2018C24.2848 37.2018 24.9465 37.0136 25.5296 36.6563L39.3937 28.1798C39.9766 27.8234 40.4607 27.311 40.7975 26.6939C41.1342 26.0768 41.3117 25.3768 41.3121 24.6641V24.4532C41.3124 23.7404 41.1353 23.04 40.7985 22.4228C40.4617 21.8056 39.9771 21.2933 39.3937 20.9376Z" fill="#2778F1"/>
<path d="M34.5092 31.1641L39.3937 28.1797C39.5461 28.0873 39.6916 27.9829 39.829 27.8672L34.5092 22.2344V31.1641Z" fill="#1650A7"/>
<path d="M39.3937 27.4922L25.5296 35.9375C24.9465 36.2948 24.2848 36.483 23.6112 36.483C22.9375 36.483 22.2758 36.2948 21.6928 35.9375L7.82861 27.4922C7.27617 27.1588 6.81084 26.6849 6.47463 26.1134C6.13842 25.5419 5.9419 24.8908 5.90283 24.2188C5.90283 24.3047 5.90283 24.375 5.90283 24.4609V24.6719C5.90326 25.3846 6.08075 26.0846 6.41748 26.7017C6.75421 27.3187 7.23833 27.8312 7.82124 28.1875L21.6928 36.6562C22.2758 37.0136 22.9375 37.2017 23.6112 37.2017C24.2848 37.2017 24.9465 37.0136 25.5296 36.6562L39.3937 28.1797C39.9766 27.8233 40.4607 27.3109 40.7975 26.6938C41.1342 26.0768 41.3117 25.3767 41.3121 24.6641V24.4531C41.3121 24.3672 41.3121 24.2969 41.3121 24.2109C41.275 24.8836 41.0802 25.5358 40.7452 26.1087C40.4103 26.6816 39.9458 27.1571 39.3937 27.4922Z" fill="#156CDD"/>
<path d="M12.418 30.9844L21.6927 36.6562C22.2757 37.0136 22.9375 37.2017 23.6111 37.2017C24.2848 37.2017 24.9465 37.0136 25.5295 36.6562L34.8043 30.9844V23.0078C34.8043 22.7074 34.6915 22.4192 34.4909 22.2068C34.2903 21.9944 34.0181 21.875 33.7344 21.875H13.4878C13.2041 21.875 12.932 21.9944 12.7313 22.2068C12.5307 22.4192 12.418 22.7074 12.418 23.0078V30.9844Z" fill="white"/>
<path d="M27.7357 27.125H19.2579C19.1326 27.125 19.0125 27.0723 18.924 26.9786C18.8354 26.8848 18.7856 26.7576 18.7856 26.625C18.7856 26.4924 18.8354 26.3652 18.924 26.2714C19.0125 26.1777 19.1326 26.125 19.2579 26.125H27.7357C27.861 26.125 27.9811 26.1777 28.0696 26.2714C28.1582 26.3652 28.208 26.4924 28.208 26.625C28.208 26.7576 28.1582 26.8848 28.0696 26.9786C27.9811 27.0723 27.861 27.125 27.7357 27.125Z" fill="#27313F"/>
<path d="M27.7357 29.5391H19.2579C19.1326 29.5391 19.0125 29.4864 18.924 29.3926C18.8354 29.2988 18.7856 29.1717 18.7856 29.0391C18.7856 28.9065 18.8354 28.7793 18.924 28.6855C19.0125 28.5917 19.1326 28.5391 19.2579 28.5391H27.7357C27.861 28.5391 27.9811 28.5917 28.0696 28.6855C28.1582 28.7793 28.208 28.9065 28.208 29.0391C28.208 29.1717 28.1582 29.2988 28.0696 29.3926C27.9811 29.4864 27.861 29.5391 27.7357 29.5391Z" fill="#27313F"/>
<path d="M23.1389 31.9609H19.2579C19.1326 31.9609 19.0125 31.9083 18.924 31.8145C18.8354 31.7207 18.7856 31.5935 18.7856 31.4609C18.7856 31.3276 18.8351 31.1996 18.9235 31.1046C19.0119 31.0096 19.132 30.9552 19.2579 30.9531H23.1389C23.2649 30.9552 23.385 31.0096 23.4733 31.1046C23.5617 31.1996 23.6112 31.3276 23.6112 31.4609C23.6112 31.5935 23.5614 31.7207 23.4729 31.8145C23.3843 31.9083 23.2642 31.9609 23.1389 31.9609Z" fill="#27313F"/>
</svg>
