<svg width="14" height="15" viewBox="0 0 14 15" fill="none" xmlns="http://www.w3.org/2000/svg">
<path d="M7 0.376221C5.71442 0.376221 4.45772 0.786655 3.3888 1.55562C2.31988 2.32459 1.48676 3.41755 0.994786 4.69629C0.502816 5.97503 0.374095 7.38213 0.624899 8.73963C0.875703 10.0971 1.49477 11.3441 2.40381 12.3228C3.31285 13.3015 4.47104 13.968 5.73192 14.238C6.99279 14.5081 8.29973 14.3695 9.48744 13.8398C10.6752 13.3101 11.6903 12.4132 12.4046 11.2623C13.1188 10.1115 13.5 8.75846 13.5 7.37436C13.4981 5.51898 12.8126 3.7402 11.594 2.42825C10.3755 1.1163 8.72331 0.378321 7 0.376221V0.376221ZM7.00004 11.6809C6.8517 11.6809 6.7067 11.6336 6.58336 11.5449C6.46002 11.4561 6.36389 11.33 6.30713 11.1825C6.25036 11.0349 6.23551 10.8726 6.26445 10.7159C6.29339 10.5593 6.36482 10.4154 6.46971 10.3025C6.5746 10.1896 6.70823 10.1127 6.85372 10.0815C6.9992 10.0503 7.15001 10.0663 7.28705 10.1274C7.42409 10.1886 7.54123 10.2921 7.62364 10.4248C7.70605 10.5576 7.75004 10.7138 7.75004 10.8735C7.75004 11.0876 7.67102 11.293 7.53037 11.4444C7.38971 11.5959 7.19895 11.6809 7.00004 11.6809ZM7.50001 8.39107V8.45133C7.50001 8.5941 7.44733 8.73102 7.35356 8.83198C7.25979 8.93293 7.13261 8.98965 7.00001 8.98965C6.8674 8.98965 6.74022 8.93293 6.64645 8.83198C6.55268 8.73102 6.50001 8.5941 6.50001 8.45133V7.91301C6.50001 7.77024 6.55269 7.63332 6.64646 7.53237C6.74023 7.43142 6.8674 7.3747 7.00001 7.37469C7.24723 7.37469 7.48891 7.29576 7.69447 7.14788C7.90003 7.00001 8.06025 6.78982 8.15486 6.54391C8.24946 6.298 8.27422 6.0274 8.22599 5.76634C8.17776 5.50528 8.05871 5.26549 7.88389 5.07727C7.70907 4.88906 7.48635 4.76089 7.24387 4.70896C7.00139 4.65703 6.75006 4.68368 6.52165 4.78554C6.29324 4.8874 6.09802 5.0599 5.96067 5.28121C5.82332 5.50253 5.75001 5.76272 5.75001 6.02889C5.75001 6.17167 5.69733 6.30859 5.60356 6.40954C5.50979 6.5105 5.38261 6.56721 5.25001 6.56721C5.1174 6.56721 4.99022 6.5105 4.89645 6.40954C4.80268 6.30859 4.75001 6.17167 4.75001 6.02889C4.75006 5.57289 4.86966 5.12616 5.09506 4.74008C5.32045 4.35401 5.64248 4.04427 6.02412 3.84649C6.40575 3.6487 6.83149 3.57091 7.25236 3.62206C7.67324 3.6732 8.07216 3.85121 8.40324 4.1356C8.73433 4.41999 8.98413 4.79922 9.12392 5.22968C9.26371 5.66013 9.28782 6.12432 9.19346 6.56887C9.09911 7.01341 8.89012 7.42026 8.59054 7.74261C8.29097 8.06497 7.91296 8.28973 7.50001 8.39107Z" fill="#27313F"/>
</svg>
