<svg width="32" height="32" viewBox="0 0 32 32" fill="none" xmlns="http://www.w3.org/2000/svg">
<path d="M29.593 23.4958L18.5969 4.49585C18.3331 4.04082 17.9544 3.66311 17.4986 3.40054C17.0429 3.13796 16.5262 2.99976 16.0002 2.99976C15.4743 2.99976 14.9575 3.13796 14.5018 3.40054C14.0461 3.66311 13.6673 4.04082 13.4035 4.49585V4.49682L2.40744 23.4958C2.14344 23.9518 2.00417 24.4692 2.00366 24.9961C2.00315 25.523 2.14142 26.0407 2.40454 26.4971C2.66766 26.9536 3.04637 27.3327 3.50254 27.5963C3.95872 27.8599 4.47628 27.9987 5.00315 27.9988H26.9973C27.5242 27.9987 28.0417 27.8599 28.4979 27.5963C28.9541 27.3327 29.3328 26.9536 29.5959 26.4971C29.859 26.0407 29.9973 25.523 29.9968 24.9961C29.9963 24.4692 29.857 23.9518 29.593 23.4958ZM14.9992 12.9998C14.9992 12.7345 15.1046 12.4802 15.2921 12.2926C15.4797 12.1051 15.734 11.9998 15.9992 11.9998C16.2645 11.9998 16.5188 12.1051 16.7063 12.2926C16.8939 12.4802 16.9992 12.7345 16.9992 12.9998V17.9998C16.9992 18.265 16.8939 18.5193 16.7063 18.7069C16.5188 18.8944 16.2645 18.9998 15.9992 18.9998C15.734 18.9998 15.4797 18.8944 15.2921 18.7069C15.1046 18.5193 14.9992 18.265 14.9992 17.9998V12.9998ZM16 24.0001C15.7033 24.0001 15.4133 23.9121 15.1666 23.7473C14.9199 23.5825 14.7277 23.3482 14.6142 23.0741C14.5006 22.8 14.4709 22.4985 14.5288 22.2075C14.5867 21.9165 14.7295 21.6492 14.9393 21.4395C15.1491 21.2297 15.4164 21.0868 15.7073 21.0289C15.9983 20.9711 16.2999 21.0008 16.574 21.1143C16.8481 21.2278 17.0824 21.4201 17.2472 21.6668C17.412 21.9134 17.5 22.2034 17.5 22.5001C17.5 22.8979 17.3419 23.2795 17.0606 23.5608C16.7793 23.8421 16.3978 24.0001 16 24.0001Z" fill="#2778F1"/>
</svg>
